<svg width="647" height="654" viewBox="0 0 647 654" fill="none" xmlns="http://www.w3.org/2000/svg">
<g id="burger 3" clip-path="url(#clip0_254_91)">
<g id="white-line">
<path id="top-white" d="M166.932 141.131C176.814 132.839 191.474 134.042 199.677 143.818L481.884 480.139C490.087 489.916 488.726 504.562 478.844 512.854C468.962 521.146 454.302 519.943 446.099 510.167L163.892 173.846C155.689 164.07 157.05 149.423 166.932 141.131Z" fill="black" stroke="#CCCCCC" stroke-width="84.8" stroke-linecap="round" stroke-linejoin="round"/>
<path id="bottom-white" d="M164.442 478.706C155.361 489.528 156.06 505.064 166.003 513.407C175.944 521.749 191.365 519.739 200.446 508.917L479.957 175.809C489.038 164.987 488.339 149.451 478.398 141.109C468.455 132.766 453.034 134.776 443.953 145.598L164.442 478.706Z" fill="black" stroke="#CCCCCC" stroke-width="84.8" stroke-linecap="round" stroke-linejoin="round"/>
</g>
<g id="black-line">
<path id="bottom-black" d="M164.442 478.706C155.361 489.528 156.06 505.064 166.003 513.407C175.944 521.749 191.365 519.739 200.446 508.917L479.957 175.809C489.038 164.987 488.339 149.451 478.398 141.109C468.455 132.766 453.034 134.776 443.953 145.598L164.442 478.706Z" fill="black"/>
<path id="top-black" d="M166.991 141.02C176.877 132.724 191.545 133.93 199.753 143.713L482.146 480.256C490.355 490.038 488.995 504.693 479.109 512.988C469.224 521.283 454.556 520.078 446.347 510.295L163.954 173.752C155.745 163.97 157.105 149.315 166.991 141.02Z" fill="black"/>
</g>
</g>
<defs>
<clipPath id="clip0_254_91">
<rect width="647" height="654" fill="white"/>
</clipPath>
</defs>
</svg>
