<svg width="647" height="654" viewBox="0 0 647 654" fill="none" xmlns="http://www.w3.org/2000/svg">
<g id="burger 1" clip-path="url(#clip0_250_71)">
<g id="white-line">
<path id="top-white" d="M92.4297 163.5C92.4297 150.6 102.775 140.143 115.537 140.143H554.573C567.335 140.143 577.68 150.6 577.68 163.5C577.68 176.4 567.335 186.857 554.573 186.857H115.537C102.775 186.857 92.4297 176.4 92.4297 163.5Z" fill="black" stroke="#CCCCCC" stroke-width="84.8" stroke-linecap="round" stroke-linejoin="round"/>
<path id="middle-white" d="M92.4297 326.994C92.4297 314.094 102.775 303.635 115.537 303.635L369.715 303.642C382.477 303.642 392.823 314.099 392.823 326.999C392.823 339.899 382.477 350.356 369.715 350.356L115.537 350.351C102.775 350.351 92.4297 339.892 92.4297 326.994Z" fill="black" stroke="#CCCCCC" stroke-width="84.8" stroke-linecap="round" stroke-linejoin="round"/>
<path id="bottom-white" d="M115.537 467.139C102.775 467.139 92.4297 477.596 92.4297 490.496C92.4297 503.394 102.775 513.851 115.537 513.851H508.358C521.12 513.851 531.465 503.394 531.465 490.496C531.465 477.596 521.12 467.139 508.358 467.139H115.537Z" fill="black" stroke="#CCCCCC" stroke-width="84.8" stroke-linecap="round" stroke-linejoin="round"/>
</g>
<g id="black-line">
<path id="top-black" d="M92.4297 163.5C92.4297 150.6 102.775 140.143 115.537 140.143H554.573C567.335 140.143 577.68 150.6 577.68 163.5C577.68 176.4 567.335 186.857 554.573 186.857H115.537C102.775 186.857 92.4297 176.4 92.4297 163.5Z" fill="black"/>
<path id="middle-black" d="M92.4297 326.994C92.4297 314.094 102.775 303.635 115.537 303.635L369.715 303.642C382.477 303.642 392.823 314.099 392.823 326.999C392.823 339.899 382.477 350.356 369.715 350.356L115.537 350.351C102.775 350.351 92.4297 339.892 92.4297 326.994Z" fill="black"/>
<path id="bottom-black" d="M115.537 467.139C102.775 467.139 92.4297 477.596 92.4297 490.496C92.4297 503.394 102.775 513.851 115.537 513.851H508.358C521.12 513.851 531.465 503.394 531.465 490.496C531.465 477.596 521.12 467.139 508.358 467.139H115.537Z" fill="black"/>
</g>
</g>
<defs>
<clipPath id="clip0_250_71">
<rect width="647" height="654" fill="white"/>
</clipPath>
</defs>
</svg>
