<svg width="800" height="800" viewBox="0 0 800 800" fill="none" xmlns="http://www.w3.org/2000/svg">
<g clip-path="url(#clip0_235_2)">
<path d="M473.436 202.709C556.517 134.833 508.278 0 400.888 0C293.479 0 245.266 134.84 328.34 202.709C302.663 223.685 286.246 255.529 286.246 291.129V378.759C286.246 393.482 298.184 405.419 312.907 405.419H488.869C503.593 405.419 515.53 393.482 515.53 378.759V291.129C515.53 255.531 499.113 223.687 473.436 202.709ZM400.001 53.4936C433.618 53.4936 460.969 80.8436 460.969 114.462C460.969 148.079 433.619 175.431 400.001 175.431C366.382 175.431 339.032 148.081 339.032 114.462C339.032 80.8451 366.382 53.4936 400.001 53.4936ZM462.208 352.096H339.568V292.187C339.568 263.132 362.947 235.003 391.701 230.828C429.571 225.328 462.208 254.509 462.208 291.128V352.096Z" fill="#E1E1E1"/>
<path d="M229.934 597.291C313.015 529.418 264.776 394.582 157.386 394.582C49.9764 394.582 1.76561 529.426 84.8373 597.291C59.1608 618.268 42.7437 650.111 42.7437 685.711V773.341C42.7437 788.064 54.6811 800.002 69.4045 800.002H245.367C260.09 800.002 272.028 788.064 272.028 773.341V685.711C272.028 650.111 255.61 618.268 229.934 597.291ZM157.734 447.902C191.351 447.902 218.703 475.252 218.703 508.871C218.703 542.49 191.353 569.839 157.734 569.839C124.117 569.839 96.7654 542.49 96.7654 508.871C96.7685 475.254 124.117 447.902 157.734 447.902ZM218.706 746.677H96.0654V686.767C96.0654 657.713 119.445 629.583 148.198 625.408C186.068 619.908 218.706 649.089 218.706 685.708V746.677Z" fill="#E1E1E1"/>
<path d="M715.161 597.291C798.242 529.418 750.003 394.582 642.613 394.582C535.204 394.582 486.993 529.426 570.064 597.291C544.388 618.268 527.971 650.111 527.971 685.711V773.341C527.971 788.064 539.908 800.002 554.632 800.002H730.594C745.317 800.002 757.255 788.064 757.255 773.341V685.711C757.256 650.11 740.837 618.268 715.161 597.291ZM642.264 447.902C675.881 447.902 703.233 475.252 703.233 508.871C703.233 542.49 675.883 569.839 642.264 569.839C608.647 569.839 581.296 542.49 581.296 508.871C581.296 475.252 608.646 447.902 642.264 447.902ZM703.934 746.677H581.294V686.767C581.294 657.713 604.674 629.583 633.427 625.408C671.297 619.908 703.934 649.089 703.934 685.708V746.677Z" fill="#E1E1E1"/>
<path d="M497.82 618.691L426.662 547.533V446.901C426.662 432.177 414.724 420.24 400.001 420.24C385.278 420.24 373.34 432.177 373.34 446.901V547.533L302.182 618.691C291.77 629.103 291.77 645.983 302.182 656.394C312.592 666.806 329.475 666.806 339.885 656.394L400.001 596.278L460.116 656.394C470.527 666.805 487.409 666.806 497.82 656.394C508.23 645.981 508.23 629.102 497.82 618.691Z" fill="#E1E1E1"/>
</g>
<defs>
<clipPath id="clip0_235_2">
<rect width="800" height="800" fill="white"/>
</clipPath>
</defs>
</svg>
