<svg width="27" height="22" viewBox="0 0 27 22" fill="none" xmlns="http://www.w3.org/2000/svg">
<path fill-rule="evenodd" clip-rule="evenodd" d="M22.6667 0C24.8758 0 26.6667 1.79086 26.6667 4V17.3333C26.6667 19.5425 24.8758 21.3333 22.6667 21.3333H4C1.79086 21.3333 0 19.5425 0 17.3333V4C0 1.79086 1.79086 0 4 0H22.6667ZM24 4.43733L14.2113 13.0034C13.7505 13.4066 13.0814 13.4402 12.5859 13.1042L12.4553 13.0034L2.66667 4.43867V17.3333C2.66667 18.0697 3.26362 18.6667 4 18.6667H22.6667C23.403 18.6667 24 18.0697 24 17.3333V4.43733ZM21.9733 2.66667H4.69067L13.3333 10.2283L21.9733 2.66667Z" fill="#CCC7C7"/>
</svg>
