<svg width="32" height="19" viewBox="0 0 32 19" fill="none" xmlns="http://www.w3.org/2000/svg">
<path d="M28.8315 1.23321L23.2017 4.43784C22.3091 4.9484 22.1181 5.92237 22.7605 6.62142C23.4128 7.32048 24.6567 7.46973 25.55 6.96709L31.1792 3.76236C32.0725 3.2518 32.2628 2.27783 31.6209 1.57878C31.4678 1.41166 31.2739 1.26999 31.0503 1.16201C30.8267 1.05402 30.578 0.981852 30.3185 0.949696C30.0591 0.917541 29.794 0.926035 29.5388 0.974686C29.2835 1.02334 29.043 1.11128 28.8315 1.23321ZM15.9671 0C14.8633 0 13.97 0.699057 13.97 1.56302V4.19434C13.97 5.05841 14.8633 5.75746 15.9671 5.75746C17.0709 5.75746 17.9636 5.05841 17.9636 4.19434V1.56302C17.9636 0.699057 17.0709 0 15.9671 0ZM0.383629 1.57878C-0.268637 2.27783 -0.0679703 3.2518 0.824695 3.76236L6.45469 6.96699C7.34735 7.47745 8.59188 7.32038 9.24402 6.62132C9.89642 5.92226 9.69562 4.9483 8.80228 4.43773L3.17309 1.23321C2.27003 0.730472 1.02536 0.879823 0.383629 1.57878ZM5.31029 9.70832C8.14015 7.72887 11.8733 6.51925 15.9671 6.51925C20.0611 6.51925 23.794 7.72887 26.6239 9.70821L5.31029 9.70832ZM24.7177 11.4132C22.9213 11.4132 21.7364 11.8758 20.9839 12.4491C20.1908 13.0618 19.6196 14.0207 19.6196 15.2146C19.6196 16.5734 20.3724 17.4527 20.9648 17.9161C22.0888 18.796 23.5328 19 24.7368 19C26.7137 19 27.7773 18.5214 28.4492 18.0108C29.1216 17.5002 29.4137 16.9421 29.5537 16.5415H26.4333C26.2925 16.7614 26.0613 16.9263 25.8605 17.0206C25.4495 17.1934 24.8781 17.2099 24.7979 17.2099C24.0656 17.2099 23.6535 17.0134 23.4528 16.8563C23.0617 16.5578 22.88 16.0467 22.88 15.6618H29.6733V15.3869C29.6733 14.5936 29.5133 13.3447 28.2289 12.3864C27.1447 11.5853 25.7812 11.4132 24.7177 11.4132ZM24.7979 13.0389C25.1192 13.0389 25.7105 13.0857 26.1419 13.4234C26.3927 13.6198 26.5931 13.9185 26.6739 14.1934H22.9805C23.0412 13.8715 23.2523 13.6119 23.4731 13.4234C23.8145 13.1485 24.246 13.0389 24.7979 13.0389ZM2.32989 11.6248H5.59122V12.4889C6.36389 11.7583 7.42722 11.4992 8.32055 11.4992C8.97295 11.4992 9.58482 11.6092 10.0767 11.8213C10.7492 12.0962 11.1207 12.4889 11.3407 12.8423C11.7121 12.3317 12.1741 12.0254 12.5853 11.8527C13.2376 11.562 13.8696 11.4992 14.4821 11.4992C15.1539 11.4992 16.2577 11.5778 17.0103 12.1512C17.8236 12.7716 17.8632 13.6199 17.8632 14.1147V18.7646H14.602V15.2381C14.602 14.4839 14.5016 13.9734 14.1309 13.7063C13.9497 13.5807 13.6989 13.4707 13.278 13.4707C12.9065 13.4707 12.6055 13.5493 12.3143 13.7613C11.7623 14.1776 11.7227 14.7667 11.7227 15.1202V18.7804H8.46135V15.2537C8.46135 14.5703 8.40082 14.0205 8.02935 13.722C7.74855 13.4863 7.37722 13.4314 7.04615 13.4314C6.69495 13.4314 6.41415 13.4785 6.15349 13.6906C5.58149 14.1227 5.58149 14.806 5.58149 15.2537V18.7804H2.32003V11.6249L2.32989 11.6248Z" fill="#5D616A"/>
</svg>
