<svg width="19" height="19" viewBox="0 0 19 19" fill="none" xmlns="http://www.w3.org/2000/svg">
<path d="M16.625 15.0417V9.71137C16.625 9.28186 16.5376 8.85683 16.3682 8.46214C16.1987 8.06746 15.9508 7.71137 15.6394 7.41554L10.5909 2.62042C10.2967 2.34087 9.90627 2.185 9.5004 2.185C9.09452 2.185 8.70414 2.34087 8.40988 2.62042L3.36062 7.41554C3.04922 7.71137 2.80126 8.06746 2.63182 8.46214C2.46238 8.85683 2.375 9.28186 2.375 9.71137V15.0417C2.375 15.4616 2.54181 15.8643 2.83875 16.1613C3.13568 16.4582 3.53841 16.625 3.95833 16.625H15.0417C15.4616 16.625 15.8643 16.4582 16.1613 16.1613C16.4582 15.8643 16.625 15.4616 16.625 15.0417Z" stroke="#E1E1E1" stroke-width="2" stroke-linecap="round" stroke-linejoin="round"/>
</svg>
