<svg width="19" height="16" viewBox="0 0 19 16" fill="none" xmlns="http://www.w3.org/2000/svg">
<path d="M9.60094 2.6625L6.72719 5.1125C6.24922 5.51875 6.15719 6.25 6.51938 6.77187C6.90234 7.32812 7.6475 7.4375 8.16109 7.01562L11.1091 4.60312C11.3169 4.43438 11.6138 4.47187 11.777 4.69062C11.9403 4.90937 11.9017 5.22187 11.6939 5.39375L11.0734 5.9L16.3341 11H17.575C18.3617 11 19 10.3281 19 9.5V5.5C19 4.67187 18.3617 4 17.575 4H15.1792L15.0634 3.92187L12.9081 2.46875C12.4539 2.1625 11.9225 2 11.3822 2C10.735 2 10.1056 2.23437 9.60094 2.6625ZM10.2778 6.55L8.74297 7.80625C7.80781 8.575 6.45109 8.375 5.75047 7.3625C5.09141 6.40937 5.25766 5.07812 6.1275 4.3375L8.5975 2.23437C8.25313 2.08125 7.88203 2.00312 7.505 2.00312C6.94688 2 6.40359 2.175 5.9375 2.5L3.8 4H1.425C0.638281 4 0 4.67187 0 5.5V9.5C0 10.3281 0.638281 11 1.425 11H4.63719L7.35063 13.6062C7.9325 14.1656 8.83203 14.1219 9.36344 13.5094C9.52672 13.3187 9.63656 13.0969 9.69297 12.8656L10.1977 13.3531C10.7766 13.9125 11.6791 13.8719 12.2105 13.2625C12.3441 13.1094 12.442 12.9312 12.5044 12.7469C13.0803 13.1531 13.8641 13.0687 14.348 12.5125C14.8794 11.9031 14.8408 10.9531 14.2619 10.3937L10.2778 6.55Z" fill="#E1E1E1"/>
</svg>
