<svg width="97" height="24" viewBox="0 0 97 24" fill="none" xmlns="http://www.w3.org/2000/svg">
<g clip-path="url(#clip0_169_293)">
<path d="M67.1715 14.7509H79.661C80.5369 14.7509 81.123 13.855 80.7679 13.0578L76.0394 5.60541C75.9619 5.48359 75.9216 5.34327 75.9216 5.20141V3.07348C75.9216 2.86069 76.0115 2.65869 76.1681 2.51528L76.7076 2.02339C76.9557 1.79672 77.0192 1.41894 76.8301 1.14292C76.7247 0.988726 76.5619 0.886955 76.3712 0.886955H70.314C70.1233 0.886955 69.9605 0.988726 69.8551 1.14292C69.6644 1.41894 69.728 1.79672 69.976 2.02339L70.6628 2.65098C70.8194 2.79438 70.9093 2.99638 70.9093 3.20918V5.17828C70.9093 5.32169 70.869 5.46046 70.7931 5.58228L66.063 13.0609C65.7095 13.8581 66.2955 14.7524 67.1715 14.7524V14.7509ZM74.3604 5.70872C74.3604 5.89222 74.2116 6.04025 74.0271 6.04025C73.8426 6.04025 73.6938 5.89222 73.6938 5.70872C73.6938 5.52523 73.8426 5.3772 74.0271 5.3772C74.2116 5.3772 74.3604 5.52523 74.3604 5.70872ZM73.4783 3.31095C73.7852 3.31095 74.0333 3.55766 74.0333 3.86297C74.0333 4.16829 73.7852 4.415 73.4783 4.415C73.1713 4.415 72.9232 4.16829 72.9232 3.86297C72.9232 3.55766 73.1713 3.31095 73.4783 3.31095ZM72.5263 6.32243C72.7682 6.32243 72.9651 6.51826 72.9651 6.75881C72.9651 6.99936 72.7682 7.19519 72.5263 7.19519C72.2845 7.19519 72.0876 6.99936 72.0876 6.75881C72.0876 6.51826 72.2845 6.32243 72.5263 6.32243ZM68.3606 12.8866L68.8862 11.9815C69.3063 11.2583 69.7574 10.549 70.128 9.79959C70.1745 9.70707 70.2194 9.61147 70.2954 9.539C70.4861 9.35396 70.7373 9.40639 70.9714 9.36475C71.2365 9.31695 71.5 9.17972 71.731 9.04711C72.1496 8.8081 72.5264 8.50279 72.9356 8.24682C73.3992 7.95693 73.9248 7.7133 74.4705 7.63157C74.7402 7.59148 75.0239 7.59302 75.2813 7.69017C75.3387 7.71175 75.3883 7.73797 75.4317 7.76726C75.5945 7.87829 75.6766 8.04328 75.7743 8.23448C75.9448 8.56601 76.1464 8.88212 76.3324 9.20439L78.4688 12.8851C78.568 13.0578 78.444 13.2721 78.244 13.2721H68.5823C68.3823 13.2721 68.2583 13.0578 68.3575 12.8851L68.3606 12.8866Z" fill="#952626"/>
<path d="M12.6585 3.94008L12.8973 2.43973C13.0244 1.63636 12.4012 0.910088 11.5841 0.910088H3.98282C2.9596 0.910088 2.08986 1.6487 1.93017 2.65252L0 14.774H3.94251L4.69907 10.0201H10.8524L11.3345 6.99011H5.18278L5.66804 3.94008H12.6585Z" fill="#952626"/>
<path d="M18.0025 0.910088H15.6724C15.2801 0.910088 14.9468 1.19381 14.8848 1.57931L12.7841 14.7756H16.7266L18.7901 1.82602C18.8661 1.34493 18.4924 0.910088 18.0025 0.910088Z" fill="#952626"/>
<path d="M29.4952 11.6638H24.8038C24.3682 11.6638 24.0364 11.2768 24.1046 10.8481L25.5496 1.77668C25.6224 1.32025 25.2674 0.908546 24.8038 0.908546H22.3884C22.0179 0.908546 21.7016 1.17685 21.6427 1.5423L19.5358 14.774H30.1308L30.4486 12.7756C30.5416 12.1927 30.0889 11.6654 29.4952 11.6654V11.6638Z" fill="#952626"/>
<path d="M40.098 13.4078C40.5801 13.4078 41.0328 13.1827 41.3227 12.8003L44.6265 8.44574C44.8296 8.17898 45.2559 8.35784 45.2063 8.68937L44.2699 14.7756H47.8946L49.8899 2.01723C49.9814 1.4359 49.5287 0.91163 48.938 0.91163H47.2977C46.9954 0.91163 46.7101 1.05349 46.5272 1.29404L41.3971 8.07412C41.1119 8.45191 40.5243 8.38714 40.329 7.95539L37.3942 1.47445C37.2391 1.13059 36.895 0.910088 36.5151 0.910088H34.7152C34.2408 0.910088 33.8377 1.25241 33.7633 1.71808L31.6843 14.774H35.3291L36.2996 8.6832C36.3492 8.3671 36.7818 8.3085 36.9151 8.59994L38.7026 12.5119C38.9523 13.0563 39.498 13.4063 40.0995 13.4063L40.098 13.4078Z" fill="#952626"/>
<path d="M64.9266 12.717C65.0165 12.1511 64.5778 11.6392 64.001 11.6392H59.5423C58.9671 11.6392 58.5268 11.1272 58.6167 10.5613L60.0275 1.70421C60.0957 1.27399 59.7609 0.883873 59.3237 0.883873H56.8245C56.4742 0.883873 56.1749 1.1383 56.1207 1.48216L54.0076 14.7478H64.6026L64.9266 12.7155V12.717Z" fill="#952626"/>
<path d="M96.9551 4.51061C97.2961 2.37188 95.7396 0.885414 92.0761 0.885414H85.6422C84.8857 0.885414 84.2407 1.43282 84.1214 2.17759L82.1199 14.7509H90.2669C94.011 14.7509 96.2264 13.3446 96.6078 10.9484C96.876 9.26453 96.09 8.07566 94.6047 7.52209C95.8977 6.90838 96.7442 5.83825 96.9566 4.51215L96.9551 4.51061ZM92.6932 10.512C92.5412 11.4634 91.7521 11.9183 90.3987 11.9183H86.9957C86.7213 11.9183 86.512 11.6746 86.5538 11.4048L86.8608 9.4804C86.8949 9.26453 87.0825 9.1057 87.3027 9.1057H90.8467C92.2017 9.1057 92.8451 9.56059 92.6932 10.512ZM92.887 5.04567C92.7443 5.93694 91.9955 6.39182 90.6808 6.39182H87.8747C87.6003 6.39182 87.391 6.14819 87.4329 5.87834L87.7166 4.09273C87.7507 3.87685 87.9383 3.71803 88.1584 3.71803H91.1056C92.4203 3.71803 93.025 4.17291 92.8854 5.04567H92.887Z" fill="#952626"/>
<path d="M41.5444 18.0183H39.5073L38.4995 23.0282H39.6731L39.946 21.6466H41.0685C42.5723 21.6466 43.5149 20.8525 43.5149 19.5788C43.5149 18.5981 42.8017 18.0183 41.5429 18.0183H41.5444ZM41.1196 20.7029H40.1336L40.4855 18.9636H41.4002C41.9909 18.9636 42.3351 19.1933 42.3351 19.6791C42.3351 20.3452 41.8886 20.7029 41.1196 20.7029Z" fill="#952626"/>
<path d="M48.7984 19.5711C48.7984 18.5904 48.0791 18.0183 46.8264 18.0183H44.7753L43.7676 23.0282H44.9412L45.2218 21.625H46.2156L47.0078 23.0282H48.2388L47.3613 21.4816C48.2605 21.2025 48.8 20.5148 48.8 19.5711H48.7984ZM46.3954 20.7014H45.4016L45.7536 18.962H46.6745C47.2713 18.962 47.6171 19.1918 47.6171 19.6775C47.6171 20.3436 47.1644 20.7014 46.3939 20.7014H46.3954Z" fill="#952626"/>
<path d="M52.3332 17.932C50.4759 17.932 49.217 19.2273 49.217 20.9389C49.217 22.2264 50.1379 23.1146 51.6712 23.1146C53.5285 23.1146 54.7874 21.8193 54.7874 20.1077C54.7874 18.8202 53.8665 17.932 52.3332 17.932ZM51.772 22.1262C50.8868 22.1262 50.3969 21.6173 50.3969 20.8741C50.3969 19.8147 51.0945 18.9204 52.2325 18.9204C53.1177 18.9204 53.6076 19.4293 53.6076 20.1725C53.6076 21.2318 52.9099 22.1262 51.772 22.1262Z" fill="#952626"/>
<path d="M58.2477 18.0183H56.1393L55.1316 23.0282H57.592C59.4555 23.0282 60.7298 21.8764 60.7298 20.1077C60.7298 18.8263 59.8012 18.0183 58.2477 18.0183ZM57.6292 22.0768H56.4928L57.1191 18.9697H58.1191C59.0694 18.9697 59.5516 19.4277 59.5516 20.1725C59.5516 21.2611 58.8384 22.0768 57.6307 22.0768H57.6292Z" fill="#952626"/>
<path d="M64.891 20.8032C64.6972 21.7407 64.2863 22.1277 63.5809 22.1277C62.9546 22.1277 62.6089 21.8347 62.6089 21.2257C62.6089 21.0961 62.6228 20.9604 62.6523 20.8032L63.2135 18.0183H62.0399L61.4787 20.8247C61.443 21.0113 61.4213 21.1902 61.4213 21.3614C61.4213 22.4423 62.1841 23.1146 63.4507 23.1146C64.8677 23.1146 65.725 22.3559 66.0274 20.8741L66.5963 18.0183H65.4522L64.891 20.8032Z" fill="#952626"/>
<path d="M69.9575 18.9204C70.5109 18.9204 70.914 19.1286 71.1729 19.5079L72.0148 18.8202C71.6551 18.2481 70.928 17.932 70.035 17.932C68.1637 17.932 66.9048 19.2273 66.9048 20.9389C66.9048 22.2264 67.8552 23.1146 69.3947 23.1146C70.2582 23.1146 70.9915 22.8648 71.5249 22.248L70.8334 21.5464C70.4598 21.9473 70.0055 22.1262 69.4955 22.1262C68.5885 22.1262 68.0847 21.625 68.0847 20.8664C68.0847 19.7854 68.818 18.9189 69.9559 18.9189L69.9575 18.9204Z" fill="#952626"/>
<path d="M76.8503 18.0183H72.4612L72.2675 18.9636H73.8783L73.0659 23.0282H74.2317L75.0519 18.9636H76.6565L76.8503 18.0183Z" fill="#952626"/>
<path d="M76.4704 23.0282H77.6425L78.6502 18.0183H77.4766L76.4704 23.0282Z" fill="#952626"/>
<path d="M82.1043 17.932C80.247 17.932 78.9882 19.2273 78.9882 20.9389C78.9882 22.2264 79.9091 23.1146 81.4423 23.1146C83.2997 23.1146 84.5585 21.8193 84.5585 20.1077C84.5585 18.8202 83.6376 17.932 82.1043 17.932ZM81.5431 22.1262C80.6579 22.1262 80.168 21.6173 80.168 20.8741C80.168 19.8147 80.8656 18.9204 82.0036 18.9204C82.8888 18.9204 83.3787 19.4293 83.3787 20.1725C83.3787 21.2318 82.6811 22.1262 81.5431 22.1262Z" fill="#952626"/>
<path d="M89.3801 18.0183L88.7537 21.1609L86.8763 18.0183H85.912L84.9043 23.0282H86.0562L86.6887 19.8934L88.5662 23.0282H89.5243L90.532 18.0183H89.3801Z" fill="#952626"/>
<path d="M93.3738 18.8633C93.8699 18.8633 94.3598 18.9929 94.7411 19.2504L95.1799 18.3622C94.7411 18.0831 94.1148 17.9335 93.4389 17.9335C92.0436 17.9335 91.1366 18.5997 91.1366 19.6297C91.1366 21.2257 93.6342 20.797 93.6342 21.5988C93.6342 21.9643 93.2311 22.1863 92.5908 22.1863C91.9939 22.1863 91.3893 21.9997 90.9289 21.6636L90.4545 22.5579C90.8793 22.8725 91.656 23.1161 92.4761 23.1161C93.8792 23.1161 94.8001 22.45 94.8001 21.4122C94.8001 19.8733 92.2963 20.3036 92.3025 19.4801C92.3025 19.1224 92.6978 18.8649 93.3753 18.8649L93.3738 18.8633Z" fill="#952626"/>
</g>
<defs>
<clipPath id="clip0_169_293">
<rect width="97" height="22.2292" fill="white" transform="translate(0 0.885414)"/>
</clipPath>
</defs>
</svg>
