<svg width="92" height="49" viewBox="0 0 92 49" fill="none" xmlns="http://www.w3.org/2000/svg">
<path d="M68.687 9.77031C68.687 9.54294 68.9868 9.45905 69.1067 9.65331L74.1519 16.5166H80.3162L85.3903 9.4171C85.5079 9.22063 85.81 9.30231 85.81 9.5319L85.8566 16.5718H90.4355L90.3933 3.09023C90.3888 1.65532 89.2186 0.494141 87.7752 0.494141C86.8514 0.494141 85.9965 0.977597 85.5235 1.7679L77.2207 12.9978L68.9513 1.74362C68.476 0.968766 67.6278 0.494141 66.7151 0.494141H66.704C65.2584 0.494141 64.0859 1.65973 64.0859 3.09686V16.5696H68.6892V9.76811L68.687 9.77031Z" fill="#952626"/>
<path d="M43.1793 16.5718H60.959V12.6446H45.1739C43.5778 12.6446 42.2822 11.362 42.2822 9.77694V0.494141H37.2891V10.7306C37.2891 13.9559 39.927 16.5718 43.1793 16.5718Z" fill="#952626"/>
<path d="M5.17694 12.2463H21.944V8.26429H5.17694V8.14659C5.17694 5.99681 6.9264 4.25567 9.08644 4.25567H25.4563V0.271484H7.78551C3.48552 0.271484 0 3.74044 0 8.02V16.5725H5.17918V12.2463H5.17694Z" fill="#952626"/>
<path d="M34.1619 0.271484H28.8889L25.4531 16.5725H30.7238L34.1619 0.271484Z" fill="#952626"/>
<path d="M4.9942 30.3231V21.0391H0V31.2747C0 34.5004 2.63847 37.1167 5.89148 37.1167H25.4563V33.1889H7.8865C6.29006 33.1889 4.9942 31.9062 4.9942 30.3209V30.3231Z" fill="#952626"/>
<path d="M91.9746 31.5499C91.7592 29.734 90.8596 28.4915 89.3825 27.8447C89.5646 27.4069 89.689 26.9201 89.7534 26.38C89.7867 26.0977 89.7912 25.3909 89.7645 25.1353C89.4669 22.2859 87.5211 20.8145 84.3136 20.8145H64.9844V37.1154H86.5348C89.7423 37.1154 91.6881 35.6418 91.9858 32.7946C92.0124 32.539 92.0102 31.8322 91.9746 31.5499ZM68.8427 24.2507H84.5602C84.9133 24.2507 85.2154 24.284 85.4709 24.3485C86.1106 24.5107 86.5437 25.1131 86.5437 25.7732V25.7799C86.5437 26.44 86.1128 27.0423 85.4709 27.2046C85.2154 27.2691 84.9133 27.3024 84.5602 27.3024H68.8427V24.2485V24.2507ZM88.765 32.1589C88.765 32.819 88.3341 33.4214 87.6921 33.5836C87.4367 33.6481 87.1346 33.6814 86.7814 33.6814H68.8427V30.6275H86.7814C87.1346 30.6275 87.4367 30.6608 87.6921 30.7253C88.3318 30.8875 88.765 31.4899 88.765 32.15V32.1567V32.1589Z" fill="#952626"/>
<path d="M56.9082 37.1154H61.8545L49.4453 20.8145H47.2093V25.6276H47.2271L53.1846 33.2618C53.3315 33.4498 53.1957 33.7239 52.9552 33.7239H37.0739C36.8334 33.7239 36.6975 33.4498 36.8445 33.2618L42.802 25.6276V20.8145H40.7686L28.3594 37.1154H56.8993H56.9082Z" fill="#952626"/>
<path d="M41.8334 28.9382L39.0781 32.6509H50.4665L47.7332 28.8713C47.7332 28.8713 46.0327 30.0554 44.3632 28.9092C42.6914 27.7653 41.8356 28.9382 41.8356 28.9382H41.8334Z" fill="#952626"/>
<path d="M45.6644 26.6211C45.2323 26.6211 44.8828 26.9207 44.8828 27.291C44.8828 27.6613 45.2323 27.9609 45.6644 27.9609C46.0964 27.9609 46.4459 27.6613 46.4459 27.291C46.4459 26.9207 46.0964 26.6211 45.6644 26.6211Z" fill="#952626"/>
<path d="M43.7656 25.0586C43.7656 25.4282 44.0659 25.7285 44.4355 25.7285C44.8051 25.7285 45.1054 25.4282 45.1054 25.0586C45.1054 24.689 44.8051 24.3887 44.4355 24.3887C44.0659 24.3887 43.7656 24.689 43.7656 25.0586Z" fill="#952626"/>
<path d="M45.5527 23.0475C45.9227 23.0475 46.2226 22.6976 46.2226 22.2659C46.2226 21.8343 45.9227 21.4844 45.5527 21.4844C45.1827 21.4844 44.8828 21.8343 44.8828 22.2659C44.8828 22.6976 45.1827 23.0475 45.5527 23.0475Z" fill="#952626"/>
<path d="M3.9789 43.3825L2.08447 43.3691L1.11719 48.0518L2.20928 48.0585L2.47227 46.7674L3.51753 46.7741C4.91719 46.783 5.79977 46.0449 5.80646 44.852C5.81314 43.9333 5.15345 43.387 3.98113 43.3803L3.9789 43.3825ZM3.56882 45.8911L2.65056 45.8844L2.98934 44.2588L3.83849 44.2655C4.38676 44.27 4.7077 44.4863 4.70547 44.9412C4.70101 45.5633 4.28425 45.8955 3.56882 45.8911Z" fill="#952626"/>
<path d="M14.2865 44.8412C14.2931 43.9264 13.6289 43.3891 12.4671 43.3825L10.5657 43.3691L9.60156 48.0318L10.69 48.0385L10.9588 46.7329L11.8807 46.7396L12.6071 48.0518L13.7489 48.0585L12.9447 46.613C13.78 46.3577 14.2842 45.7205 14.2909 44.8412H14.2865ZM12.0517 45.8803L11.1299 45.8737L11.4675 44.2551L12.3227 44.2617C12.8759 44.2662 13.1958 44.4815 13.1935 44.9345C13.1891 45.5539 12.767 45.8848 12.0517 45.8803Z" fill="#952626"/>
<path d="M21.2004 43.3692C19.4906 43.3579 18.3214 44.5787 18.3126 46.2019C18.3037 47.4249 19.1487 48.2726 20.5606 48.2817C22.2703 48.293 23.4373 47.0722 23.4484 45.449C23.4572 44.226 22.6123 43.3783 21.2004 43.3692ZM20.6576 47.3458C19.8414 47.3412 19.3958 46.8552 19.4002 46.1499C19.4068 45.1439 20.0554 44.3006 21.1011 44.3074C21.9173 44.3119 22.363 44.798 22.3586 45.5056C22.3519 46.5116 21.7033 47.3548 20.6576 47.348V47.3458Z" fill="#952626"/>
<path d="M30.2439 43.6051L28.2336 43.5918L27.2422 48.2655L29.5905 48.281C31.3678 48.2922 32.5899 47.2239 32.6013 45.5725C32.6105 44.3752 31.7287 43.6141 30.2462 43.6051H30.2439ZM29.6271 47.393L28.542 47.3864L29.1588 44.4887L30.1136 44.4954C31.0205 44.502 31.4774 44.9316 31.4729 45.6282C31.466 46.6453 30.7807 47.4019 29.6294 47.3953L29.6271 47.393Z" fill="#952626"/>
<path d="M39.9765 46.2876C39.7949 47.1885 39.423 47.5576 38.7874 47.553C38.2231 47.5484 37.9118 47.2642 37.9161 46.6796C37.9161 46.5558 37.9313 46.4252 37.9572 46.2739L38.4804 43.5987L37.421 43.5918L36.8978 46.2876C36.8633 46.4664 36.8438 46.6384 36.8438 46.8034C36.8373 47.8441 37.5227 48.4952 38.6642 48.5043C39.9441 48.5135 40.7202 47.7891 41.0034 46.3656L41.5331 43.6216L40.4997 43.6147L39.9765 46.2899V46.2876Z" fill="#952626"/>
<path d="M48.2656 44.5278C48.7962 44.5323 49.182 44.7313 49.4277 45.093L50.2407 44.4464C49.8985 43.9016 49.205 43.5964 48.3483 43.5919C46.5546 43.5806 45.3374 44.8013 45.3282 46.4245C45.319 47.6476 46.2262 48.4953 47.703 48.5044C48.5321 48.5089 49.2371 48.276 49.7516 47.695L49.0924 47.0259C48.7318 47.4034 48.2955 47.5707 47.8063 47.5684C46.9359 47.5639 46.4559 47.0846 46.4628 46.3635C46.4696 45.3371 47.1793 44.521 48.2702 44.5278H48.2656Z" fill="#952626"/>
<path d="M54.0391 44.6954L55.5286 44.7065L54.7539 48.4971L55.8296 48.5038L56.613 44.7132L58.0959 44.7221L58.2818 43.8411L54.225 43.8145L54.0391 44.6954Z" fill="#952626"/>
<path d="M61.4062 48.4971L62.4708 48.5038L63.416 43.8234L62.3514 43.8145L61.4062 48.4971Z" fill="#952626"/>
<path d="M70.2243 43.8145C68.4403 43.8037 67.2202 44.969 67.211 46.5184C67.2018 47.6858 68.0835 48.4951 69.5568 48.5037C71.3408 48.5145 72.5586 47.3492 72.5701 45.7998C72.5793 44.6324 71.6976 43.8232 70.2243 43.8145ZM69.658 47.6103C68.8063 47.606 68.3413 47.1421 68.3459 46.4688C68.3528 45.5085 69.0296 44.7036 70.1207 44.7101C70.9725 44.7144 71.4375 45.1783 71.4329 45.8538C71.426 46.814 70.7492 47.619 69.658 47.6125V47.6103Z" fill="#952626"/>
<path d="M79.873 46.7594L78.1864 43.8211L77.3105 43.8145L76.3672 48.4771L77.4126 48.4838L78.006 45.5677L79.6904 48.4993L80.5598 48.5038L81.5031 43.8433L80.4598 43.8366L79.873 46.7594Z" fill="#952626"/>
<path d="M87.8441 44.6962C88.3096 44.6985 88.7683 44.8251 89.1259 45.0715L89.5441 44.2328C89.1326 43.966 88.5479 43.8191 87.9115 43.8145C86.6005 43.8055 85.746 44.4317 85.7393 45.4106C85.7303 46.9252 88.0757 46.5341 88.0712 47.2937C88.069 47.6396 87.6889 47.8476 87.0885 47.8453C86.5286 47.8408 85.9619 47.6622 85.5301 47.3389L85.0781 48.1844C85.4739 48.4851 86.2025 48.7225 86.9738 48.727C88.2916 48.736 89.1596 48.1098 89.1664 47.1242C89.1754 45.6638 86.8232 46.0549 86.8344 45.2749C86.8344 44.9358 87.21 44.694 87.8441 44.6985V44.6962Z" fill="#952626"/>
</svg>
