<svg width="95" height="73" viewBox="0 0 95 73" fill="none" xmlns="http://www.w3.org/2000/svg">
<g clip-path="url(#clip0_203_807)">
<path d="M9.96584 17.014H21.3714L22.2651 11.3561H10.8595L11.759 5.66079H24.7163L25.1588 2.85919C25.3945 1.35905 24.2393 0.0028801 22.7248 0.0028801H8.63534C6.7416 0.0028801 5.12948 1.38209 4.83062 3.25654L1.25293 25.8911H8.56062L9.96296 17.014H9.96584Z" fill="#952626"/>
<path d="M32.2598 25.8911L36.0817 1.71033C36.2225 0.811975 35.53 0 34.6219 0H30.3028C29.5758 0 28.958 0.529799 28.843 1.24964L24.9492 25.8911H32.2569H32.2598Z" fill="#952626"/>
<path d="M57.6915 22.1565C57.8639 21.0682 57.0248 20.0834 55.9242 20.0834H47.2285C46.421 20.0834 45.8061 19.3607 45.9325 18.5602L48.6108 1.62107C48.7458 0.768785 48.0878 0 47.2285 0H42.7514C42.0646 0 41.4784 0.501006 41.3692 1.18341L37.4639 25.8911H57.1024L57.6915 22.1594V22.1565Z" fill="#952626"/>
<path d="M68.5339 14.5176C68.6259 13.9274 69.4276 13.818 69.6748 14.3622L72.9881 21.6671C73.4507 22.6835 74.4623 23.3371 75.5772 23.3371C76.4709 23.3371 77.31 22.9167 77.8474 22.2026L83.9712 14.0714C84.3476 13.5732 85.1379 13.9072 85.0459 14.5263L83.3102 25.8911H90.0288L93.7272 2.06737C93.8968 0.981856 93.0576 0.00287934 91.9628 0.00287934H88.9225C88.3621 0.00287934 87.8334 0.267779 87.4943 0.716957L77.9854 13.3774C77.4566 14.0829 76.3675 13.9619 76.0054 13.1557L70.5656 1.05384C70.2782 0.411746 69.6403 0 68.9362 0H65.5999C64.7206 0 63.9734 0.639214 63.8355 1.50878L59.9819 25.8882H66.7379L68.5368 14.5148L68.5339 14.5176Z" fill="#952626"/>
<path d="M58.6169 53.4205L49.8522 39.5046C49.7086 39.2771 49.6338 39.0151 49.6338 38.7502V34.7796C49.6338 34.3822 49.8005 34.005 50.0908 33.7373L51.0908 32.8188C51.5506 32.3955 51.6684 31.6901 51.3178 31.1747C51.1224 30.8867 50.8207 30.6967 50.4672 30.6967H39.2399C38.8864 30.6967 38.5847 30.8867 38.3893 31.1747C38.0358 31.6901 38.1536 32.3955 38.6134 32.8188L39.8864 33.9907C40.1767 34.2584 40.3433 34.6356 40.3433 35.033V38.7099C40.3433 38.9777 40.2686 39.2368 40.1278 39.4643L31.3603 53.4291C30.7051 54.9177 31.7914 56.5877 33.415 56.5877H56.5651C58.1887 56.5877 59.2749 54.9148 58.6169 53.4262V53.4205ZM46.7401 39.6946C46.7401 40.0373 46.4642 40.3137 46.1222 40.3137C45.7803 40.3137 45.5044 40.0373 45.5044 39.6946C45.5044 39.352 45.7803 39.0756 46.1222 39.0756C46.4642 39.0756 46.7401 39.352 46.7401 39.6946ZM45.105 35.2173C45.674 35.2173 46.1337 35.6779 46.1337 36.2481C46.1337 36.8182 45.674 37.2789 45.105 37.2789C44.536 37.2789 44.0762 36.8182 44.0762 36.2481C44.0762 35.6779 44.536 35.2173 45.105 35.2173ZM42.4641 40.737C42.9124 40.737 43.2773 41.1026 43.2773 41.5518C43.2773 42.001 42.9124 42.3667 42.4641 42.3667C42.0158 42.3667 41.6508 42.001 41.6508 41.5518C41.6508 41.1026 42.0158 40.737 42.4641 40.737ZM55.1972 53.7516H34.7799C34.6047 53.7516 34.5012 53.5587 34.5989 53.4118C35.5242 52.0297 38.9697 46.8959 39.0876 46.7778C39.441 46.4323 39.9065 46.5302 40.3405 46.4525C40.8319 46.3632 41.3204 46.1069 41.7485 45.8593C42.5244 45.413 43.2227 44.8429 43.9814 44.3649C44.8406 43.8236 45.8148 43.3687 46.8263 43.2161C47.3263 43.1412 47.8522 43.1441 48.3292 43.3255C48.4355 43.3658 48.5275 43.4147 48.608 43.4695C48.8752 43.6537 54.2058 51.6497 55.3783 53.4118C55.476 53.5587 55.3697 53.7516 55.1972 53.7516Z" fill="#952626"/>
<path d="M25.8228 50.7743H13.5236C12.4575 50.7743 11.6413 49.8184 11.808 48.7617L14.423 32.2227C14.5495 31.4194 13.9288 30.6909 13.1184 30.6909H8.48607C7.83663 30.6909 7.28201 31.166 7.18143 31.8081L3.26465 56.5791H26.9263L27.5269 52.7726C27.6935 51.7245 26.8832 50.7743 25.8228 50.7743Z" fill="#952626"/>
<path d="M91.6523 37.9123C92.2701 34.0108 89.4539 31.3042 82.8216 31.3042H68.4792C67.1084 31.3042 65.9417 32.3034 65.7262 33.6595L62.1025 56.582H79.5456C86.3217 56.582 90.3304 54.0194 91.0201 49.6485C91.5057 46.5791 90.0804 44.411 87.3935 43.4003C89.7327 42.2803 91.2672 40.331 91.6494 37.9123H91.6523ZM83.9394 48.8538C83.6664 50.5872 82.2353 51.4164 79.787 51.4164H70.9304C70.4333 51.4164 70.0539 50.9701 70.1315 50.4807L70.6861 46.9736C70.7494 46.5791 71.0856 46.2912 71.485 46.2912H80.5974C83.0486 46.2912 84.2153 47.1205 83.9394 48.8538ZM84.29 38.8884C84.0342 40.5124 82.675 41.3445 80.2985 41.3445H72.5253C72.0281 41.3445 71.6488 40.8982 71.7264 40.4087L72.2408 37.155C72.304 36.7606 72.6402 36.4726 73.0397 36.4726H81.0715C83.4509 36.4726 84.5429 37.3019 84.2929 38.8913L84.29 38.8884Z" fill="#952626"/>
<path d="M5.10073 64.3965H1.68971L0 72.856H1.96558L2.42249 70.5238H4.30473C6.82492 70.5238 8.40543 69.182 8.40543 67.0311C8.40543 65.3755 7.20999 64.3965 5.10073 64.3965ZM4.38806 68.9286H2.73571L3.32769 65.9917H4.85934C5.84788 65.9917 6.42836 66.3775 6.42836 67.201C6.42836 68.3239 5.68121 68.9286 4.39094 68.9286H4.38806Z" fill="#952626"/>
<path d="M17.2589 67.0196C17.2589 65.364 16.052 64.3965 13.9542 64.3965H10.5173L8.82764 72.856H10.7932L11.2645 70.4863H12.9283L14.256 72.856H16.3192L14.8479 70.2445C16.3566 69.7723 17.2589 68.6119 17.2589 67.0167V67.0196ZM13.2301 68.9286H11.5662L12.1582 65.9917H13.7013C14.7014 65.9917 15.2819 66.3775 15.2819 67.201C15.2819 68.3239 14.5232 68.9286 13.2301 68.9286Z" fill="#952626"/>
<path d="M23.1819 64.2497C20.0697 64.2497 17.9604 66.438 17.9604 69.326C17.9604 71.4999 19.5036 73 22.0726 73C25.1848 73 27.2941 70.8117 27.2941 67.9237C27.2941 65.7498 25.7509 64.2497 23.1819 64.2497ZM22.2422 71.3329C20.7594 71.3329 19.9375 70.4748 19.9375 69.2165C19.9375 67.4285 21.1071 65.9168 23.0123 65.9168C24.4951 65.9168 25.317 66.7749 25.317 68.0331C25.317 69.8212 24.1474 71.3329 22.2422 71.3329Z" fill="#952626"/>
<path d="M33.0988 64.3965H29.5642L27.8745 72.856H31.9982C35.1219 72.856 37.257 70.9096 37.257 67.9237C37.257 65.7613 35.7023 64.3936 33.0959 64.3936L33.0988 64.3965ZM32.0614 71.2494H30.1562L31.2051 66.0032H32.8804C34.4724 66.0032 35.2799 66.7777 35.2799 68.0331C35.2799 69.8702 34.0845 71.2465 32.0585 71.2465L32.0614 71.2494Z" fill="#952626"/>
<path d="M44.2313 69.0985C43.9066 70.6821 43.2169 71.3329 42.0358 71.3329C40.987 71.3329 40.4065 70.8376 40.4065 69.8097C40.4065 69.5909 40.4295 69.3634 40.4783 69.0956L41.418 64.3936H39.4524L38.5127 69.1302C38.4524 69.444 38.415 69.7463 38.415 70.0372C38.415 71.8627 39.6938 72.9971 41.8174 72.9971C44.194 72.9971 45.6279 71.7158 46.1365 69.2137L47.0906 64.3908H45.1739L44.2342 69.0927L44.2313 69.0985Z" fill="#952626"/>
<path d="M52.723 65.9197C53.6512 65.9197 54.3265 66.271 54.7604 66.9102L56.1714 65.7498C55.5679 64.7824 54.3495 64.2526 52.8552 64.2526C49.72 64.2526 47.6079 66.4409 47.6079 69.3288C47.6079 71.5027 49.1999 73.0029 51.7805 73.0029C53.2288 73.0029 54.4587 72.5796 55.3495 71.5402L54.1914 70.3568C53.565 71.0334 52.8035 71.3357 51.9471 71.3357C50.427 71.3357 49.5821 70.4892 49.5821 69.2079C49.5821 67.3824 50.812 65.9197 52.7173 65.9197H52.723Z" fill="#952626"/>
<path d="M64.2779 64.3965H56.9213L56.5938 65.9917H59.2979L57.9329 72.856H59.887L61.2634 65.9917H63.9532L64.2779 64.3965Z" fill="#952626"/>
<path d="M63.6396 72.856H65.6052L67.2921 64.3965H65.3265L63.6396 72.856Z" fill="#952626"/>
<path d="M73.0828 64.2497C69.9706 64.2497 67.8613 66.438 67.8613 69.326C67.8613 71.4999 69.4045 73 71.9735 73C75.0857 73 77.1949 70.8117 77.1949 67.9237C77.1949 65.7498 75.6518 64.2497 73.0828 64.2497ZM72.1431 71.3329C70.6603 71.3329 69.8384 70.4748 69.8384 69.2165C69.8384 67.4285 71.008 65.9168 72.9132 65.9168C74.396 65.9168 75.2179 66.7749 75.2179 68.0331C75.2179 69.8212 74.0483 71.3329 72.1431 71.3329Z" fill="#952626"/>
<path d="M85.2785 64.3965L84.2296 69.7003L81.0801 64.3965H79.4651L77.7754 72.856H79.7065L80.7669 67.5609L83.9164 72.856H85.5199L87.2067 64.3965H85.2785Z" fill="#952626"/>
<path d="M90.1753 66.8612C90.1753 66.2566 90.8391 65.8218 91.9713 65.8218C92.8047 65.8218 93.6236 66.0406 94.2616 66.4754L94.9972 64.9782C94.2616 64.5059 93.2127 64.2526 92.0776 64.2526C89.7385 64.2526 88.2183 65.3755 88.2183 67.1175C88.2183 69.8126 92.4023 69.087 92.4023 70.4403C92.4023 71.0564 91.727 71.4308 90.6523 71.4308C89.6523 71.4308 88.6379 71.1169 87.8649 70.5497L87.0688 72.0613C87.7815 72.594 89.0833 73.0029 90.4569 73.0029C92.8075 73.0029 94.3536 71.8799 94.3536 70.1264C94.3536 67.5293 90.1552 68.252 90.1695 66.8641L90.1753 66.8612Z" fill="#952626"/>
</g>
<defs>
<clipPath id="clip0_203_807">
<rect width="95" height="73" fill="white"/>
</clipPath>
</defs>
</svg>
