<svg width="95" height="73" viewBox="0 0 95 73" fill="none" xmlns="http://www.w3.org/2000/svg">
<g clip-path="url(#clip0_1_113)">
<path d="M9.96681 17.0131H21.3723L22.266 11.3552H10.8605L11.76 5.65986H24.7173L25.1598 2.85826C25.3954 1.35812 24.2402 0.00195312 22.7258 0.00195312H8.63631C6.74258 0.00195312 5.13046 1.38116 4.8316 3.25561L1.25391 25.8901H8.5616L9.96394 17.0131H9.96681Z" fill="#952626"/>
<path d="M32.2598 25.8911L36.0817 1.71033C36.2225 0.811975 35.53 0 34.6219 0H30.3028C29.5758 0 28.958 0.529799 28.843 1.24964L24.9492 25.8911H32.2569H32.2598Z" fill="#952626"/>
<path d="M57.6925 22.1565C57.8649 21.0682 57.0258 20.0834 55.9252 20.0834H47.2295C46.422 20.0834 45.8071 19.3607 45.9335 18.5602L48.6117 1.62107C48.7468 0.768785 48.0887 0 47.2295 0H42.7524C42.0656 0 41.4793 0.501006 41.3701 1.18341L37.4648 25.8911H57.1034L57.6925 22.1594V22.1565Z" fill="#952626"/>
<path d="M68.5325 14.5176C68.6244 13.9274 69.4262 13.818 69.6733 14.3622L72.9866 21.6671C73.4493 22.6835 74.4608 23.3371 75.5758 23.3371C76.4695 23.3371 77.3086 22.9167 77.846 22.2026L83.9697 14.0714C84.3461 13.5732 85.1364 13.9072 85.0445 14.5263L83.3088 25.8911H90.0274L93.7257 2.06737C93.8953 0.981856 93.0562 0.00287934 91.9613 0.00287934H88.921C88.3606 0.00287934 87.8319 0.267779 87.4928 0.716957L77.9839 13.3774C77.4551 14.0829 76.366 13.9619 76.0039 13.1557L70.5641 1.05384C70.2768 0.411746 69.6388 0 68.9348 0H65.5985C64.7191 0 63.972 0.639214 63.834 1.50878L59.9805 25.8882H66.7364L68.5353 14.5148L68.5325 14.5176Z" fill="#952626"/>
<path d="M58.6183 53.421L49.8537 39.5052C49.71 39.2777 49.6353 39.0157 49.6353 38.7508V34.7802C49.6353 34.3828 49.802 34.0056 50.0922 33.7379L51.0922 32.8193C51.552 32.3961 51.6699 31.6906 51.3193 31.1752C51.1239 30.8873 50.8221 30.6973 50.4687 30.6973H39.2413C38.8879 30.6973 38.5861 30.8873 38.3907 31.1752C38.0373 31.6906 38.1551 32.3961 38.6149 32.8193L39.8879 33.9912C40.1781 34.259 40.3448 34.6362 40.3448 35.0336V38.7105C40.3448 38.9783 40.2701 39.2374 40.1293 39.4649L31.3618 53.4297C30.7066 54.9183 31.7928 56.5883 33.4164 56.5883H56.5666C58.1902 56.5883 59.2764 54.9154 58.6183 53.4268V53.421ZM46.7415 39.6952C46.7415 40.0379 46.4657 40.3143 46.1237 40.3143C45.7817 40.3143 45.5059 40.0379 45.5059 39.6952C45.5059 39.3526 45.7817 39.0762 46.1237 39.0762C46.4657 39.0762 46.7415 39.3526 46.7415 39.6952ZM45.1064 35.2178C45.6754 35.2178 46.1352 35.6785 46.1352 36.2486C46.1352 36.8187 45.6754 37.2794 45.1064 37.2794C44.5375 37.2794 44.0777 36.8187 44.0777 36.2486C44.0777 35.6785 44.5375 35.2178 45.1064 35.2178ZM42.4656 40.7375C42.9138 40.7375 43.2788 41.1032 43.2788 41.5524C43.2788 42.0016 42.9138 42.3672 42.4656 42.3672C42.0173 42.3672 41.6523 42.0016 41.6523 41.5524C41.6523 41.1032 42.0173 40.7375 42.4656 40.7375ZM55.1987 53.7522H34.7814C34.6061 53.7522 34.5027 53.5593 34.6004 53.4124C35.5257 52.0303 38.9712 46.8965 39.089 46.7784C39.4425 46.4329 39.908 46.5308 40.3419 46.453C40.8333 46.3638 41.3218 46.1075 41.75 45.8599C42.5259 45.4136 43.2242 44.8435 43.9828 44.3655C44.8421 43.8242 45.8162 43.3693 46.8278 43.2167C47.3278 43.1418 47.8536 43.1447 48.3307 43.3261C48.437 43.3664 48.529 43.4153 48.6094 43.47C48.8767 43.6543 54.2073 51.6502 55.3797 53.4124C55.4774 53.5593 55.3711 53.7522 55.1987 53.7522Z" fill="#952626"/>
<path d="M25.8238 50.7748H13.5246C12.4584 50.7748 11.6423 49.8189 11.809 48.7622L14.424 32.2232C14.5504 31.4199 13.9297 30.6914 13.1194 30.6914H8.48705C7.8376 30.6914 7.28299 31.1665 7.18241 31.8086L3.26562 56.5796H26.9273L27.5279 52.7731C27.6945 51.725 26.8842 50.7748 25.8238 50.7748Z" fill="#952626"/>
<path d="M91.6513 37.9128C92.2691 34.0113 89.453 31.3047 82.8206 31.3047H68.4782C67.1075 31.3047 65.9408 32.3038 65.7252 33.66L62.1016 56.5824H79.5446C86.3207 56.5824 90.3294 54.0198 91.0191 49.649C91.5047 46.5796 90.0794 44.4115 87.3926 43.4008C89.7317 42.2807 91.2662 40.3314 91.6484 37.9128H91.6513ZM83.9384 48.8543C83.6654 50.5877 82.2344 51.4169 79.786 51.4169H70.9294C70.4323 51.4169 70.053 50.9706 70.1305 50.4811L70.6852 46.9741C70.7484 46.5796 71.0846 46.2917 71.484 46.2917H80.5964C83.0476 46.2917 84.2143 47.1209 83.9384 48.8543ZM84.289 38.8889C84.0333 40.5128 82.674 41.345 80.2975 41.345H72.5243C72.0272 41.345 71.6478 40.8987 71.7254 40.4092L72.2398 37.1555C72.303 36.761 72.6392 36.4731 73.0387 36.4731H81.0705C83.4499 36.4731 84.5419 37.3024 84.2919 38.8918L84.289 38.8889Z" fill="#952626"/>
<path d="M5.10073 64.3965H1.68971L0 72.856H1.96558L2.42249 70.5237H4.30473C6.82492 70.5237 8.40543 69.182 8.40543 67.0311C8.40543 65.3755 7.20999 64.3965 5.10073 64.3965ZM4.38806 68.9286H2.73571L3.32769 65.9916H4.85934C5.84788 65.9916 6.42836 66.3775 6.42836 67.201C6.42836 68.3239 5.68121 68.9286 4.39094 68.9286H4.38806Z" fill="#952626"/>
<path d="M17.2594 67.0196C17.2594 65.3639 16.0525 64.3965 13.9547 64.3965H10.5178L8.82812 72.856H10.7937L11.265 70.4863H12.9288L14.2565 72.856H16.3197L14.8484 70.2444C16.3571 69.7722 17.2594 68.6118 17.2594 67.0167V67.0196ZM13.2306 68.9286H11.5667L12.1587 65.9916H13.7018C14.7019 65.9916 15.2823 66.3775 15.2823 67.201C15.2823 68.3239 14.5237 68.9286 13.2306 68.9286Z" fill="#952626"/>
<path d="M23.1824 64.25C20.0702 64.25 17.9609 66.4383 17.9609 69.3263C17.9609 71.5002 19.5041 73.0003 22.0731 73.0003C25.1853 73.0003 27.2946 70.812 27.2946 67.924C27.2946 65.7501 25.7514 64.25 23.1824 64.25ZM22.2427 71.3332C20.7599 71.3332 19.938 70.4751 19.938 69.2169C19.938 67.4288 21.1076 65.9171 23.0128 65.9171C24.4956 65.9171 25.3175 66.7752 25.3175 68.0335C25.3175 69.8215 24.1479 71.3332 22.2427 71.3332Z" fill="#952626"/>
<path d="M33.0993 64.3974H29.5647L27.875 72.8569H31.9987C35.1223 72.8569 37.2575 70.9105 37.2575 67.9246C37.2575 65.7622 35.7028 64.3945 33.0964 64.3945L33.0993 64.3974ZM32.0619 71.2502H30.1567L31.2056 66.0041H32.8809C34.4729 66.0041 35.2804 66.7786 35.2804 68.034C35.2804 69.871 34.085 71.2474 32.059 71.2474L32.0619 71.2502Z" fill="#952626"/>
<path d="M44.2303 69.0983C43.9056 70.682 43.2159 71.3327 42.0349 71.3327C40.986 71.3327 40.4055 70.8375 40.4055 69.8095C40.4055 69.5907 40.4285 69.3633 40.4773 69.0955L41.417 64.3935H39.4515L38.5118 69.13C38.4514 69.4439 38.4141 69.7462 38.4141 70.037C38.4141 71.8625 39.6928 72.997 41.8165 72.997C44.193 72.997 45.6269 71.7157 46.1356 69.2135L47.0896 64.3906H45.1729L44.2332 69.0926L44.2303 69.0983Z" fill="#952626"/>
<path d="M52.7245 65.9191C53.6527 65.9191 54.328 66.2704 54.7619 66.9096L56.1729 65.7492C55.5694 64.7818 54.351 64.252 52.8567 64.252C49.7215 64.252 47.6094 66.4403 47.6094 69.3282C47.6094 71.5021 49.2014 73.0023 51.7819 73.0023C53.2302 73.0023 54.4602 72.579 55.351 71.5396L54.1929 70.3562C53.5665 71.0328 52.8049 71.3351 51.9486 71.3351C50.4284 71.3351 49.5836 70.4886 49.5836 69.2073C49.5836 67.3818 50.8135 65.9191 52.7187 65.9191H52.7245Z" fill="#952626"/>
<path d="M64.2779 64.3965H56.9213L56.5938 65.9916H59.2979L57.9329 72.856H59.887L61.2634 65.9916H63.9532L64.2779 64.3965Z" fill="#952626"/>
<path d="M63.6406 72.856H65.6062L67.293 64.3965H65.3275L63.6406 72.856Z" fill="#952626"/>
<path d="M73.0808 64.25C69.9686 64.25 67.8594 66.4383 67.8594 69.3263C67.8594 71.5002 69.4025 73.0003 71.9716 73.0003C75.0837 73.0003 77.193 70.812 77.193 67.924C77.193 65.7501 75.6498 64.25 73.0808 64.25ZM72.1411 71.3332C70.6583 71.3332 69.8364 70.4751 69.8364 69.2169C69.8364 67.4288 71.006 65.9171 72.9113 65.9171C74.3941 65.9171 75.2159 66.7752 75.2159 68.0335C75.2159 69.8215 74.0463 71.3332 72.1411 71.3332Z" fill="#952626"/>
<path d="M85.2765 64.3965L84.2277 69.7002L81.0781 64.3965H79.4631L77.7734 72.856H79.7045L80.7649 67.5609L83.9144 72.856H85.5179L87.2048 64.3965H85.2765Z" fill="#952626"/>
<path d="M90.1767 66.8606C90.1767 66.256 90.8405 65.8212 91.9728 65.8212C92.8061 65.8212 93.6251 66.04 94.2631 66.4748L94.9987 64.9775C94.2631 64.5053 93.2142 64.252 92.0791 64.252C89.7399 64.252 88.2198 65.3749 88.2198 67.1169C88.2198 69.812 92.4038 69.0864 92.4038 70.4397C92.4038 71.0558 91.7285 71.4302 90.6538 71.4302C89.6537 71.4302 88.6393 71.1163 87.8663 70.5491L87.0703 72.0607C87.783 72.5934 89.0847 73.0023 90.4583 73.0023C92.809 73.0023 94.355 71.8793 94.355 70.1258C94.355 67.5286 90.1566 68.2514 90.171 66.8635L90.1767 66.8606Z" fill="#952626"/>
</g>
<defs>
<clipPath id="clip0_1_113">
<rect width="95" height="73" fill="white"/>
</clipPath>
</defs>
</svg>
