<svg width="11" height="17" viewBox="0 0 11 17" fill="none" xmlns="http://www.w3.org/2000/svg">
<path d="M0.71594 0.0599958C0.465508 0.149703 0.271142 0.306689 0.129106 0.534695C0.0244472 0.702896 0.0169715 0.740274 0.0169715 1.07294V1.43177L1.28409 4.27249C1.98305 5.8349 2.78575 7.26554 2.89041 7.50102C3.08103 7.92713 3.07262 7.79538 3.07262 8.18784L2.93246 8.75786L1.47845 12.0247C0.0281849 15.2803 0.0244471 15.2915 0.00575815 15.5831C-0.00919305 15.8597 -0.00171744 15.8971 0.110417 16.1251C0.315996 16.5437 0.734629 16.7717 1.22054 16.7268C1.62049 16.6895 1.76626 16.5923 2.89508 15.6391C4.80883 14.0207 9.94831 9.326 10.1352 9.03071C10.3819 8.62703 10.3782 8.09253 10.124 7.68511C9.97447 7.45336 6.40113 4.16036 3.96035 2.00739C2.89508 1.0692 1.85597 0.216983 1.65039 0.116063C1.38127 -0.0147602 0.996275 -0.037187 0.71594 0.0599958Z" fill="#E1E1E1"/>
</svg>
