<svg width="11" height="17" viewBox="0 0 11 17" fill="none" xmlns="http://www.w3.org/2000/svg">
<g filter="url(#filter0_b_730_119)">
<path d="M9.60144 0.0599958C9.85188 0.149703 10.0462 0.306689 10.1883 0.534695C10.2929 0.702896 10.3004 0.740274 10.3004 1.07294V1.43177L9.0333 4.27249C8.33433 5.8349 7.53163 7.26554 7.42698 7.50102C7.23635 7.92713 7.24476 7.79538 7.24476 8.18784L7.38493 8.75786L8.83893 12.0247C10.2892 15.2803 10.2929 15.2915 10.3116 15.5831C10.3266 15.8597 10.3191 15.8971 10.207 16.1251C10.0014 16.5437 9.58275 16.7717 9.09684 16.7268C8.6969 16.6895 8.55112 16.5923 7.42231 15.6391C5.50855 14.0207 0.369077 9.326 0.182187 9.03071C-0.0645076 8.62703 -0.06077 8.09253 0.1934 7.68511C0.342912 7.45336 3.91625 4.16036 6.35703 2.00739C7.42231 1.0692 8.46141 0.216983 8.66699 0.116063C8.93611 -0.0147602 9.32111 -0.037187 9.60144 0.0599958Z" fill="#E1E1E1"/>
</g>
<defs>
<filter id="filter0_b_730_119" x="-7" y="-7" width="24.3174" height="30.7324" filterUnits="userSpaceOnUse" color-interpolation-filters="sRGB">
<feFlood flood-opacity="0" result="BackgroundImageFix"/>
<feGaussianBlur in="BackgroundImageFix" stdDeviation="3.5"/>
<feComposite in2="SourceAlpha" operator="in" result="effect1_backgroundBlur_730_119"/>
<feBlend mode="normal" in="SourceGraphic" in2="effect1_backgroundBlur_730_119" result="shape"/>
</filter>
</defs>
</svg>
