<svg width="24" height="24" viewBox="0 0 24 24" fill="none" xmlns="http://www.w3.org/2000/svg">
<path d="M3.00002 -7.82135e-05C2.43197 -0.0155998 1.85728 0.126331 1.34377 0.468672L1.31252 0.499922H1.28127C0.0290999 1.47383 -0.444135 3.28681 0.468772 4.65617V4.68742L1.68752 6.37492L2.25002 7.18742L3.06252 6.62492L6.37502 4.31242L7.18752 3.74992L6.62502 2.93742L5.53127 1.34367L5.50002 1.31242V1.28117C5.01307 0.655086 4.30563 0.224541 3.56252 0.0624218C3.37675 0.021892 3.18937 0.00509569 3.00002 -7.82135e-05ZM2.81252 1.99992C2.93318 1.97875 3.05907 1.96848 3.18752 1.99992C3.43166 2.05968 3.66858 2.21843 3.87502 2.46867C3.88582 2.48175 3.89569 2.48631 3.90627 2.49992L4.40627 3.24992L2.75002 4.40617L2.12502 3.53117C1.84506 3.11123 1.95521 2.54861 2.46877 2.12492C2.57643 2.05315 2.69186 2.02109 2.81252 1.99992ZM8.59377 5.09367L6.90627 6.18742L18.4375 17.2499C17.3769 17.0993 16.2218 16.9999 15 16.9999C12.7064 16.9999 10.6172 17.2856 9.03127 17.7812C8.43655 17.967 7.92204 18.1752 7.46877 18.4374L4.40627 7.90617L2.68752 8.99992L6.03127 20.6874C6.10286 21.3731 6.53181 21.9122 7.03127 22.2812C7.57614 22.6837 8.23831 22.9709 9.03127 23.2187C10.6172 23.7143 12.7064 23.9999 15 23.9999C17.2936 23.9999 19.3828 23.7143 20.9688 23.2187C21.7617 22.9709 22.4239 22.6837 22.9688 22.2812C23.5136 21.8786 24 21.2775 24 20.4999C24 19.7224 23.5136 19.1212 22.9688 18.7187C22.8326 18.618 22.6824 18.5248 22.5313 18.4374L8.59377 5.09367ZM15 18.9999C17.1247 18.9999 19.0343 19.2782 20.3438 19.6874C20.9985 19.892 21.5165 20.148 21.7813 20.3437C21.8934 20.4265 21.941 20.4691 21.9688 20.4999C21.941 20.5307 21.8934 20.5733 21.7813 20.6562C21.5165 20.8518 20.9985 21.1078 20.3438 21.3124C19.0343 21.7216 17.1247 21.9999 15 21.9999C12.8753 21.9999 10.9658 21.7216 9.65627 21.3124C9.00152 21.1078 8.48355 20.8518 8.21877 20.6562C8.10663 20.5733 8.05902 20.5307 8.03127 20.4999C8.05902 20.4691 8.10663 20.4265 8.21877 20.3437C8.48355 20.148 9.00152 19.892 9.65627 19.6874C10.9658 19.2782 12.8753 18.9999 15 18.9999Z" fill="#CCC7C7"/>
</svg>
