<svg width="20" height="20" viewBox="0 0 20 20" fill="none" xmlns="http://www.w3.org/2000/svg">
<path d="M5 6.875C5 6.62877 5.0485 6.38495 5.14273 6.15747C5.23695 5.92998 5.37506 5.72328 5.54917 5.54917C5.72328 5.37506 5.92998 5.23695 6.15747 5.14273C6.38495 5.0485 6.62877 5 6.875 5C7.12123 5 7.36505 5.0485 7.59253 5.14273C7.82002 5.23695 8.02672 5.37506 8.20083 5.54917C8.37494 5.72328 8.51305 5.92998 8.60727 6.15747C8.7015 6.38495 8.75 6.62877 8.75 6.875C8.75 7.37228 8.55246 7.84919 8.20083 8.20083C7.84919 8.55246 7.37228 8.75 6.875 8.75C6.37772 8.75 5.90081 8.55246 5.54917 8.20083C5.19754 7.84919 5 7.37228 5 6.875ZM6.875 3.75C6.0462 3.75 5.25134 4.07924 4.66529 4.66529C4.07924 5.25134 3.75 6.0462 3.75 6.875C3.75 7.7038 4.07924 8.49866 4.66529 9.08471C5.25134 9.67076 6.0462 10 6.875 10C7.7038 10 8.49866 9.67076 9.08471 9.08471C9.67076 8.49866 10 7.7038 10 6.875C10 6.0462 9.67076 5.25134 9.08471 4.66529C8.49866 4.07924 7.7038 3.75 6.875 3.75ZM13.125 7.5C13.125 7.16848 13.2567 6.85054 13.4911 6.61612C13.7255 6.3817 14.0435 6.25 14.375 6.25C14.7065 6.25 15.0245 6.3817 15.2589 6.61612C15.4933 6.85054 15.625 7.16848 15.625 7.5C15.625 7.83152 15.4933 8.14946 15.2589 8.38388C15.0245 8.6183 14.7065 8.75 14.375 8.75C14.0435 8.75 13.7255 8.6183 13.4911 8.38388C13.2567 8.14946 13.125 7.83152 13.125 7.5ZM14.375 5C13.712 5 13.0761 5.26339 12.6072 5.73223C12.1384 6.20107 11.875 6.83696 11.875 7.5C11.875 8.16304 12.1384 8.79893 12.6072 9.26777C13.0761 9.73661 13.712 10 14.375 10C15.038 10 15.6739 9.73661 16.1428 9.26777C16.6116 8.79893 16.875 8.16304 16.875 7.5C16.875 6.83696 16.6116 6.20107 16.1428 5.73223C15.6739 5.26339 15.038 5 14.375 5ZM1.875 13.125C1.875 12.6277 2.07254 12.1508 2.42417 11.7992C2.77581 11.4475 3.25272 11.25 3.75 11.25H10C10.4973 11.25 10.9742 11.4475 11.3258 11.7992C11.6775 12.1508 11.875 12.6277 11.875 13.125V13.265C11.8737 13.3223 11.8695 13.3794 11.8625 13.4362C11.7913 14.0422 11.5657 14.6198 11.2075 15.1137C10.5237 16.0575 9.22375 16.875 6.875 16.875C4.5275 16.875 3.2275 16.0575 2.54125 15.1137C2.18345 14.6197 1.95836 14.0421 1.8875 13.4362C1.88128 13.3793 1.87711 13.3222 1.875 13.265V13.125ZM3.125 13.2375V13.2463L3.13 13.3075C3.17841 13.6945 3.32373 14.0629 3.5525 14.3787C3.96 14.9388 4.8475 15.625 6.875 15.625C8.9025 15.625 9.79 14.9388 10.1975 14.3787C10.4263 14.0629 10.5716 13.6945 10.62 13.3075C10.6222 13.2867 10.6239 13.2659 10.625 13.245V13.125C10.625 12.9592 10.5592 12.8003 10.4419 12.6831C10.3247 12.5658 10.1658 12.5 10 12.5H3.75C3.58424 12.5 3.42527 12.5658 3.30806 12.6831C3.19085 12.8003 3.125 12.9592 3.125 13.125V13.2375ZM14.375 15.625C13.64 15.625 13.0375 15.5125 12.55 15.3275C12.7504 14.9604 12.9021 14.5688 13.0013 14.1625C13.3363 14.2887 13.7812 14.375 14.375 14.375C15.7738 14.375 16.3475 13.8975 16.6 13.5425C16.7476 13.3354 16.8412 13.0949 16.8725 12.8425L16.875 12.8075C16.8737 12.7255 16.8402 12.6473 16.7817 12.5898C16.7233 12.5322 16.6445 12.5 16.5625 12.5H13.0625C12.9702 12.0467 12.7781 11.6197 12.5 11.25H16.5625C17.425 11.25 18.125 11.95 18.125 12.8125V12.8337C18.1235 12.8793 18.1202 12.9247 18.115 12.97C18.062 13.4385 17.8908 13.8858 17.6175 14.27C17.09 15.0088 16.1012 15.625 14.375 15.625Z" fill="#E1E1E1"/>
</svg>
