<svg width="19" height="19" viewBox="0 0 19 19" fill="none" xmlns="http://www.w3.org/2000/svg">
<path d="M8.60938 7.71875L6.38281 10.0938H10.8359L13.0625 7.71875H8.60938Z" fill="#E1E1E1"/>
<path d="M1.78125 10.6875V17.2188C1.78125 17.5466 2.04683 17.8125 2.375 17.8125H17.2188C17.5469 17.8125 17.8125 17.5466 17.8125 17.2188V10.6875H1.78125ZM14.8438 13.6562H4.75C4.42183 13.6562 4.15625 13.3904 4.15625 13.0625C4.15625 12.7346 4.42183 12.4688 4.75 12.4688H14.8438C15.1719 12.4688 15.4375 12.7346 15.4375 13.0625C15.4375 13.3904 15.1719 13.6562 14.8438 13.6562Z" fill="#E1E1E1"/>
<path d="M7.63023 3.50911L6.11914 6.39295L10.4108 5.20307L11.9219 2.31982L7.63023 3.50911Z" fill="#E1E1E1"/>
<path d="M1.43528 4.98704C1.11905 5.07473 0.93416 5.40183 1.02174 5.71782L1.59376 7.53126L4.50141 6.60162L6.01262 3.71813L1.43528 4.98704ZM15.7396 1.02174L13.1646 1.73554L11.6534 4.61903L16.9462 3.15182L16.4704 1.43528C16.3828 1.11935 16.0559 0.9341 15.7396 1.02174Z" fill="#E1E1E1"/>
<path d="M1.78125 7.71875V10.0938H4.89844L7.125 7.71875H1.78125Z" fill="#E1E1E1"/>
<path d="M14.5469 7.71875L12.3203 10.0938H17.8125V7.71875H14.5469Z" fill="#E1E1E1"/>
</svg>
