<svg width="32" height="32" viewBox="0 0 32 32" fill="none" xmlns="http://www.w3.org/2000/svg">
<path d="M14.5 13L10.75 17H18.25L22 13H14.5Z" fill="white"/>
<path d="M3 18V29C3 29.5522 3.4473 30 4 30H29C29.5527 30 30 29.5522 30 29V18H3ZM25 23H8C7.4473 23 7 22.5522 7 22C7 21.4478 7.4473 21 8 21H25C25.5527 21 26 21.4478 26 22C26 22.5522 25.5527 23 25 23Z" fill="white"/>
<path d="M12.8512 5.91023L10.3062 10.7672L17.5342 8.76323L20.0792 3.90723L12.8512 5.91023Z" fill="white"/>
<path d="M2.73311 8.71501C2.20051 8.86271 1.88911 9.41361 2.03661 9.94581L3.00001 13L7.89711 11.4343L10.4423 6.57791L2.73311 8.71501ZM26.8246 2.03661L22.4878 3.23881L19.9426 8.09521L28.8568 5.62411L28.0554 2.73311C27.9079 2.20101 27.3573 1.88901 26.8246 2.03661Z" fill="white"/>
<path d="M3 13V17H8.25L12 13H3Z" fill="white"/>
<path d="M24.5 13L20.75 17H30V13H24.5Z" fill="white"/>
</svg>
