<svg width="19" height="19" viewBox="0 0 19 19" fill="none" xmlns="http://www.w3.org/2000/svg">
<path d="M15.0416 3.16666H3.95831C3.32842 3.16666 2.72433 3.41688 2.27893 3.86228C1.83354 4.30768 1.58331 4.91177 1.58331 5.54166V13.4583C1.58331 14.0882 1.83354 14.6923 2.27893 15.1377C2.72433 15.5831 3.32842 15.8333 3.95831 15.8333H15.0416C15.6715 15.8333 16.2756 15.5831 16.721 15.1377C17.1664 14.6923 17.4166 14.0882 17.4166 13.4583V5.54166C17.4166 4.91177 17.1664 4.30768 16.721 3.86228C16.2756 3.41688 15.6715 3.16666 15.0416 3.16666ZM14.5112 4.74999L9.49998 8.51041L4.48873 4.74999H14.5112ZM15.0416 14.25H3.95831C3.74835 14.25 3.54699 14.1666 3.39852 14.0181C3.25005 13.8697 3.16665 13.6683 3.16665 13.4583V5.73957L9.02498 10.1333C9.16201 10.2361 9.32869 10.2917 9.49998 10.2917C9.67127 10.2917 9.83794 10.2361 9.97498 10.1333L15.8333 5.73957V13.4583C15.8333 13.6683 15.7499 13.8697 15.6014 14.0181C15.453 14.1666 15.2516 14.25 15.0416 14.25Z" fill="#E1E1E1"/>
</svg>
