<svg width="19" height="19" viewBox="0 0 19 19" fill="none" xmlns="http://www.w3.org/2000/svg">
<path d="M16.1797 3.5625H2.82031C2.24645 3.5625 1.78125 4.0277 1.78125 4.60156V14.3984C1.78125 14.9723 2.24645 15.4375 2.82031 15.4375H16.1797C16.7535 15.4375 17.2188 14.9723 17.2188 14.3984V4.60156C17.2188 4.0277 16.7535 3.5625 16.1797 3.5625Z" stroke="#E1E1E1" stroke-width="1.5" stroke-linejoin="round"/>
<path d="M16.1797 12.4688H15.2891C14.7152 12.4688 14.25 12.934 14.25 13.5078V14.3984C14.25 14.9723 14.7152 15.4375 15.2891 15.4375H16.1797C16.7535 15.4375 17.2188 14.9723 17.2188 14.3984V13.5078C17.2188 12.934 16.7535 12.4688 16.1797 12.4688Z" stroke="#E1E1E1" stroke-width="1.5" stroke-linejoin="round"/>
<path d="M16.1797 9.5H15.2891C14.7152 9.5 14.25 9.9652 14.25 10.5391V11.4297C14.25 12.0035 14.7152 12.4688 15.2891 12.4688H16.1797C16.7535 12.4688 17.2188 12.0035 17.2188 11.4297V10.5391C17.2188 9.9652 16.7535 9.5 16.1797 9.5Z" stroke="#E1E1E1" stroke-width="1.5" stroke-linejoin="round"/>
<path d="M16.1797 6.53125H15.2891C14.7152 6.53125 14.25 6.99645 14.25 7.57031V8.46094C14.25 9.0348 14.7152 9.5 15.2891 9.5H16.1797C16.7535 9.5 17.2188 9.0348 17.2188 8.46094V7.57031C17.2188 6.99645 16.7535 6.53125 16.1797 6.53125Z" stroke="#E1E1E1" stroke-width="1.5" stroke-linejoin="round"/>
<path d="M16.1797 3.5625H15.2891C14.7152 3.5625 14.25 4.0277 14.25 4.60156V5.49219C14.25 6.06605 14.7152 6.53125 15.2891 6.53125H16.1797C16.7535 6.53125 17.2188 6.06605 17.2188 5.49219V4.60156C17.2188 4.0277 16.7535 3.5625 16.1797 3.5625Z" stroke="#E1E1E1" stroke-width="1.5" stroke-linejoin="round"/>
<path d="M3.71094 12.4688H2.82031C2.24645 12.4688 1.78125 12.934 1.78125 13.5078V14.3984C1.78125 14.9723 2.24645 15.4375 2.82031 15.4375H3.71094C4.2848 15.4375 4.75 14.9723 4.75 14.3984V13.5078C4.75 12.934 4.2848 12.4688 3.71094 12.4688Z" stroke="#E1E1E1" stroke-width="1.5" stroke-linejoin="round"/>
<path d="M3.71094 9.5H2.82031C2.24645 9.5 1.78125 9.9652 1.78125 10.5391V11.4297C1.78125 12.0035 2.24645 12.4688 2.82031 12.4688H3.71094C4.2848 12.4688 4.75 12.0035 4.75 11.4297V10.5391C4.75 9.9652 4.2848 9.5 3.71094 9.5Z" stroke="#E1E1E1" stroke-width="1.5" stroke-linejoin="round"/>
<path d="M3.71094 6.53125H2.82031C2.24645 6.53125 1.78125 6.99645 1.78125 7.57031V8.46094C1.78125 9.0348 2.24645 9.5 2.82031 9.5H3.71094C4.2848 9.5 4.75 9.0348 4.75 8.46094V7.57031C4.75 6.99645 4.2848 6.53125 3.71094 6.53125Z" stroke="#E1E1E1" stroke-width="1.5" stroke-linejoin="round"/>
<path d="M3.71094 3.5625H2.82031C2.24645 3.5625 1.78125 4.0277 1.78125 4.60156V5.49219C1.78125 6.06605 2.24645 6.53125 2.82031 6.53125H3.71094C4.2848 6.53125 4.75 6.06605 4.75 5.49219V4.60156C4.75 4.0277 4.2848 3.5625 3.71094 3.5625Z" stroke="#E1E1E1" stroke-width="1.5" stroke-linejoin="round"/>
<path d="M13.2109 3.5625H5.78906C5.2152 3.5625 4.75 4.0277 4.75 4.60156V8.46094C4.75 9.0348 5.2152 9.5 5.78906 9.5H13.2109C13.7848 9.5 14.25 9.0348 14.25 8.46094V4.60156C14.25 4.0277 13.7848 3.5625 13.2109 3.5625Z" stroke="#E1E1E1" stroke-width="1.5" stroke-linejoin="round"/>
<path d="M13.2109 9.5H5.78906C5.2152 9.5 4.75 9.9652 4.75 10.5391V14.3984C4.75 14.9723 5.2152 15.4375 5.78906 15.4375H13.2109C13.7848 15.4375 14.25 14.9723 14.25 14.3984V10.5391C14.25 9.9652 13.7848 9.5 13.2109 9.5Z" stroke="#E1E1E1" stroke-width="1.5" stroke-linejoin="round"/>
</svg>
